<svg id="Capa_1" enable-background="new 0 0 511.492 511.492" height="512" viewBox="0 0 511.492 511.492" width="512" xmlns="http://www.w3.org/2000/svg" xmlns:xlink="http://www.w3.org/1999/xlink"><linearGradient id="lg1"><stop offset=".00000036422" stop-color="#a8abff"/><stop offset="1" stop-color="#fac8ff"/></linearGradient><linearGradient id="SVGID_1_" gradientUnits="userSpaceOnUse" x1="400.746" x2="400.746" xlink:href="#lg1" y1="7.5" y2="148.698"/><linearGradient id="SVGID_2_" gradientUnits="userSpaceOnUse" x1="119.746" x2="119.746" xlink:href="#lg1" y1="40.5" y2="155.223"/><linearGradient id="SVGID_3_" gradientUnits="userSpaceOnUse" x1="259.746" x2="259.746" xlink:href="#lg1" y1="86.5" y2="165.924"/><linearGradient id="Outline_1_" gradientUnits="userSpaceOnUse" x1="255.746" x2="255.746" y1="0" y2="511.492"><stop offset=".00000011981" stop-color="#174fa3"/><stop offset="1" stop-color="#b044af"/></linearGradient><g><g id="Filled_19_"><path d="m445.746 296.929-190 203.571-190-203.571 55.882-96.429h268.235z" fill="#fff"/><path d="m400.746 148.698-67.439-67.701c-16.794-16.86-16.741-44.141.118-60.936 16.858-16.794 44.141-16.741 60.935.118l6.385 6.41 6.385-6.41c16.794-16.859 44.077-16.912 60.935-.118 16.86 16.794 16.913 44.076.118 60.936z" fill="url(#SVGID_1_)"/><path d="m119.746 155.223-54.794-55.007c-13.645-13.698-13.602-35.865.096-49.51 13.697-13.645 35.865-13.602 49.51.096l5.188 5.208 5.188-5.208c13.645-13.698 35.812-13.741 49.51-.096 13.699 13.645 13.741 35.812.096 49.51z" fill="url(#SVGID_2_)"/><path d="m259.746 165.924-37.934-38.082c-9.447-9.484-9.417-24.829.067-34.276 9.483-9.447 24.829-9.417 34.276.066l3.592 3.606 3.592-3.606c9.446-9.483 24.793-9.513 34.276-.066 9.484 9.447 9.513 24.793.067 34.276z" fill="url(#SVGID_3_)"/></g><path id="Outline_19_" d="m117.306 193-60.838 104.98 199.277 213.512 199.278-213.512-60.838-104.98zm258.882 15-48.342 75.835-57.774-75.835zm-62.937 81.429h-114.033l56.574-75.42zm-71.703-81.429-56.887 75.837-49.223-75.837zm-119.557 6.833 48.416 74.595h-91.647zm-38.987 89.596h95.897l57.9 164.782zm111.798 0h122.952l-61.952 173.603zm80.188 164.461 58.69-164.461h94.807zm67.079-179.461 47.489-74.497 43.173 74.497zm58.677-130.104 72.752-73.036c9.537-9.573 14.774-22.287 14.748-35.8-.026-13.512-5.313-26.206-14.887-35.742-9.549-9.512-22.223-14.747-35.698-14.747-.033 0-.068 0-.102 0-13.513.026-26.206 5.313-35.742 14.886l-1.071 1.075-1.071-1.075c-19.688-19.764-51.781-19.824-71.542-.139-9.573 9.536-14.86 22.23-14.887 35.742-.026 13.513 5.211 26.227 14.748 35.8zm-62.028-133.95c6.935-6.908 16.023-10.358 25.114-10.358 9.136 0 18.273 3.487 25.215 10.456l11.698 11.745 11.698-11.745c6.709-6.734 15.639-10.454 25.145-10.472h.071c9.479 0 18.396 3.683 25.113 10.375 6.735 6.709 10.454 15.639 10.473 25.145s-3.666 18.45-10.375 25.185l-62.125 62.367-62.125-62.367c-6.709-6.735-10.394-15.679-10.375-25.185s3.738-18.438 10.473-25.146zm-218.972 140.476 60.107-60.341c8.014-8.044 12.414-18.728 12.393-30.083s-4.465-22.021-12.509-30.034c-16.565-16.501-43.439-16.487-59.991-.01-7.999-7.965-18.613-12.361-29.909-12.383-.028 0-.056 0-.085 0-11.323 0-21.974 4.399-29.997 12.393-8.044 8.013-12.487 18.679-12.509 30.034-.021 11.354 4.379 22.038 12.393 30.083zm-49.405-109.831c5.192-5.173 12.084-8.02 19.412-8.02h.056c7.348.014 14.251 2.889 19.436 8.094l10.502 10.544 10.501-10.543c10.705-10.747 28.158-10.781 38.904-.075 5.206 5.186 8.08 12.088 8.095 19.436s-2.834 14.262-8.02 19.468l-49.48 49.672-49.48-49.672c-5.186-5.206-8.034-12.12-8.02-19.468.013-7.348 2.887-14.251 8.094-19.436zm189.405 120.531 43.248-43.417c12.351-12.399 12.312-32.533-.087-44.882-5.991-5.968-13.942-9.252-22.397-9.252-.021 0-.042 0-.063 0-7.688.015-14.953 2.744-20.701 7.731-5.748-4.988-13.014-7.717-20.701-7.732-.021 0-.042 0-.063 0-8.453 0-16.405 3.285-22.396 9.252-12.398 12.35-12.438 32.483-.087 44.882zm-32.575-77.672c3.16-3.147 7.353-4.879 11.812-4.879h.033c4.471.009 8.67 1.758 11.825 4.926l8.905 8.939 8.905-8.939c3.155-3.167 7.354-4.917 11.825-4.925h.033c4.459 0 8.652 1.732 11.812 4.879 6.538 6.513 6.559 17.131.046 23.669l-32.621 32.748-32.621-32.748c-6.513-6.539-6.492-17.157.046-23.67zm-178.925 70.121h15v15h-15zm15 65h-15v-15h15zm10-25v-15h15v15zm-50-15h15v15h-15zm425-56h15v15h-15zm0 50h15v15h-15zm25-25h15v15h-15zm-50 15v-15h15v15z" fill="url(#Outline_1_)"/></g></svg>